<svg xmlns="http://www.w3.org/2000/svg" width="15.838" height="21.792" viewBox="0 0 15.838 21.792">
  <g id="Group_375" data-name="Group 375" transform="translate(-2190.835 -1722.383)">
    <path id="Path_1722" data-name="Path 1722" d="M951.05,21.786A7.914,7.914,0,0,0,956,7.7V4.952a4.952,4.952,0,0,0-9.9,0V7.7a7.917,7.917,0,0,0,4.952,14.1ZM948.09,4.952a2.971,2.971,0,1,1,5.943,0V6.526a7.825,7.825,0,0,0-5.943,0Zm2.96,2.96a5.935,5.935,0,1,0,0,.012Z" transform="translate(1247.706 1722.383)" fill="#0c5576"/>
    <path id="Path_1723" data-name="Path 1723" d="M964.188,40.456v2.255a.991.991,0,0,0,1.98,0V40.456a1.983,1.983,0,1,0-1.98,0Z" transform="translate(1233.58 1696.506)" fill="#0c5576"/>
  </g>
</svg>
