<svg xmlns="http://www.w3.org/2000/svg" width="31" height="31" viewBox="0 0 31 31">
  <path id="Path_1720" data-name="Path 1720" d="M1091.5,408.478a12.431,12.431,0,1,0-4.164,20.357l5.552,5.556a4.909,4.909,0,1,0,6.94-6.945l-5.552-5.556a12.47,12.47,0,0,0-2.776-13.413Zm-3.211,16.283-.162.12a9.727,9.727,0,0,1-1.175.722h0a9.392,9.392,0,1,1,3.738-3.528c-.1.167-.2.338-.31.5a8.72,8.72,0,0,1-1.073,1.315,8.279,8.279,0,0,1-1.018.87Zm9.313,4.875a1.805,1.805,0,0,1-2.549,2.551l-4.923-4.922.13-.116a11.071,11.071,0,0,0,2.313-2.315c.037-.046.079-.083.111-.125Z" transform="translate(-1070.263 -404.829)" fill="#0c5576"/>
</svg>
